<?xml version="1.0" encoding="utf-8"?>
<!-- Generator: Adobe Illustrator 16.0.4, SVG Export Plug-In . SVG Version: 6.00 Build 0)  -->
<!DOCTYPE svg PUBLIC "-//W3C//DTD SVG 1.1//EN" "http://www.w3.org/Graphics/SVG/1.1/DTD/svg11.dtd">
<svg version="1.1" id="Layer_1" xmlns="http://www.w3.org/2000/svg" xmlns:xlink="http://www.w3.org/1999/xlink" x="0px" y="0px"
	 width="432px" height="411px" viewBox="0 0 432 411" enable-background="new 0 0 432 411" xml:space="preserve">
<rect x="-60.386" y="-78.672" fill="#EBEBEB" width="551.886" height="548.844"/>
<g>
	<g>
		<path fill="#A71930" d="M413.79,45.301h-62.525l0.117,147.784c-0.034,3.546-0.976,21.545-15.864,21.554
			c-5.505,0.006-8.02-1.899-9.432-3.334c-4.669-4.741-5.557-13.865-5.507-16.98l-0.106-149.022H219.036l0.036,60.222l11.517-0.007
			c10.526-0.002,13.987,2.693,14.985,3.854c0.985,1.144,1.151,2.603,1.151,3.467c0,0.424-0.042,0.704-0.045,0.737
			c-0.064,0.32-0.151,0.789-0.151,0.789l-0.045,1.345l0.059,99.174c0.014,19.273,6.389,35.812,18.428,47.829
			c12.53,12.509,30.562,19.386,50.771,19.366c14.882-0.01,26.824-3.617,35.824-7.889c0.009,1.433,0.028,2.902,0.028,4.29
			c0,10.132-0.311,18.788-1.872,20.676c-0.405,0.312-2.651,1.544-13.197,1.553H36.26v69.312h322.992
			c23.65-0.017,41.534-6.876,53.149-20.144c11.594-13.242,13.051-29.282,13.051-37.577c0-2.097,0.087-3.631,0-4.568
			c-0.004-1.062,0-262.428,0-262.428H413.79V45.301z"/>
		<path fill="#A71930" d="M36.26,277.804l71.84-0.055l-0.107-154.066l-0.09-0.792c-0.006-0.063-0.638-6.242,2.843-10.126
			c3.208-3.58,9.415-4.336,14.055-4.34c5.015-0.001,8.593,1.148,10.94,3.523c3.356,3.395,4.032,9.166,4.008,11.104l-0.003,0.291
			l0.101,116.183l0.006-0.414c-0.062,1.783-0.304,17.731,10.4,28.813c6.186,6.405,14.736,9.791,24.727,9.787
			c0.008,0,61.591-0.054,61.591-0.054l-0.035-60.763l-13.147,1.715c-1.51,0.198-6.403,0.26-8.934-1.961
			c-2.058-1.805-2.713-5.533-2.714-8.343c0-0.333,0-0.002,0-109.571v0.466c0.038-0.985,0.911-24.351-15.44-41.354
			c-10.774-11.209-25.948-16.882-45.091-16.868c-19.733,0.02-34.015,5.498-44.206,12.249c-0.001-3.411-0.004-7.925-0.004-7.925
			H6.509l0.038,63.069l13.996-2.968c2.802-0.595,9.602-0.908,12.738,1.917c2.278,2.051,2.98,6.141,2.98,9.768v160.715H36.26z"/>
	</g>
	<g>
		<path fill="#0B2265" d="M252.898,214.883c0.013,17.555,5.723,32.541,16.542,43.346c11.336,11.312,27.775,17.535,46.294,17.518
			c19.723-0.014,33.769-6.71,42.091-12.301c0.013,1.956,0.032,4.655,0.032,4.655c0.035,3.935,0.07,7.556,0.07,10.865
			c0,13.232-0.555,21.464-3.698,24.637c-2.333,2.361-7.465,3.325-17.702,3.335l-293.932,0.21v56.655l316.65-0.24
			c21.749-0.017,38.029-6.025,48.386-17.856c10.246-11.706,11.759-25.881,11.759-33.215c0-2.254-0.139-3.822-0.217-4.514
			c0-0.581-0.192-256.343-0.192-256.343h-61.374l0.112,141.443c-0.003,1.126-0.361,27.878-22.194,27.891
			c-5.941,0.009-10.521-1.716-13.994-5.267c-7.518-7.692-7.284-21.372-7.284-21.51c0.007-0.14-0.102-142.558-0.102-142.558H225.37
			l0.035,47.549l5.179-0.001c9.677-0.005,16.568,2.149,19.933,6.226c3.358,4.063,2.422,9.041,2.382,9.251V214.883z"/>
		<path fill="#0B2265" d="M42.597,271.465l59.165-0.044l-0.104-147.431l-0.044-0.352c-0.012-0.09-1.057-8.887,4.326-15.003
			c3.818-4.338,10.163-6.539,18.856-6.545c6.75-0.006,11.975,1.841,15.527,5.482c5.933,6.083,5.76,15.504,5.758,15.598
			c-0.001,0.164,0.099,116.345,0.099,116.345c-0.019,0.412-0.412,14.644,8.629,24.005c5.035,5.212,11.821,7.854,20.17,7.852
			c0.002,0,55.255-0.047,55.255-0.047l-0.031-47.306l-5.946,0.863c-0.086,0.012-8.593,1.184-13.919-3.422
			c-3.124-2.702-4.71-7.128-4.712-13.155l-0.076-109.572c0.031-0.666,0.686-21.422-13.813-36.5
			c-9.537-9.91-23.171-14.933-40.526-14.918c-25.993,0.027-41.668,10.104-50.534,19.205c-0.003-4.473-0.01-14.881-0.01-14.881
			H12.847l0.031,48.98l6.321-1.404c0.115-0.028,11.687-2.515,18.274,3.354c3.329,2.969,5.124,7.818,5.124,14.457V271.465z"/>
	</g>
</g>
</svg>
